<svg width="928" height="696" viewBox="0 0 928 696" fill="none" xmlns="http://www.w3.org/2000/svg">
<g clip-path="url(#clip0_155_2)">
<path d="M205.637 69.7191H146.457C140.767 69.7245 135.312 72.1325 131.289 76.4145C127.266 80.6965 125.003 86.5025 124.998 92.5581V160.847C124.242 160.799 123.485 160.726 122.739 160.63C108.719 159.06 95.3896 153.353 84.2539 144.151C73.1181 134.95 64.619 122.621 59.7146 108.553C54.8103 94.4857 53.6959 79.2398 56.497 64.5343C59.2981 49.8289 65.9033 36.2487 75.5679 25.3249C85.2326 14.4011 97.5723 6.56812 111.196 2.70912C124.819 -1.14988 139.185 -0.88145 152.673 3.48417C166.16 7.84979 178.234 16.139 187.533 27.4171C196.831 38.6953 202.984 52.5139 205.299 67.315C205.423 68.1083 205.536 68.9137 205.637 69.7191Z" fill="#F2F2F2"/>
<path d="M904.282 67.3154H146.456C140.168 67.3227 134.139 69.9846 129.693 74.7171C125.246 79.4495 122.745 85.8659 122.738 92.5585V518.085C122.745 524.778 125.246 531.194 129.693 535.927C134.139 540.659 140.168 543.321 146.456 543.328H904.282C910.57 543.321 916.599 540.659 921.045 535.927C925.492 531.194 927.993 524.778 927.999 518.085V92.5585C927.993 85.8659 925.492 79.4495 921.045 74.7171C916.599 69.9846 910.57 67.3227 904.282 67.3154ZM925.741 518.085C925.736 524.141 923.473 529.947 919.45 534.229C915.427 538.511 909.972 540.919 904.282 540.924H146.456C140.766 540.919 135.311 538.511 131.288 534.229C127.265 529.947 125.002 524.141 124.997 518.085V92.5585C125.002 86.5029 127.265 80.6969 131.288 76.415C135.311 72.133 140.766 69.725 146.456 69.7195H904.282C909.972 69.725 915.427 72.133 919.45 76.415C923.473 80.6969 925.736 86.5029 925.741 92.5585V518.085Z" fill="#3F3D56"/>
<path d="M867.013 136.276H183.727C183.428 136.276 183.14 136.15 182.928 135.924C182.717 135.699 182.598 135.393 182.598 135.074C182.598 134.755 182.717 134.45 182.928 134.224C183.14 133.999 183.428 133.872 183.727 133.872H867.013C867.313 133.872 867.6 133.999 867.812 134.224C868.024 134.45 868.143 134.755 868.143 135.074C868.143 135.393 868.024 135.699 867.812 135.924C867.6 136.15 867.313 136.276 867.013 136.276Z" fill="#3F3D56"/>
<path d="M376.854 491.639C376.554 491.639 376.267 491.513 376.055 491.287C375.844 491.062 375.725 490.756 375.725 490.437V94.9618C375.725 94.643 375.844 94.3373 376.055 94.1118C376.267 93.8864 376.554 93.7598 376.854 93.7598C377.154 93.7598 377.441 93.8864 377.653 94.1118C377.864 94.3373 377.983 94.643 377.983 94.9618V490.437C377.983 490.756 377.864 491.062 377.653 491.287C377.441 491.513 377.154 491.639 376.854 491.639Z" fill="#3F3D56"/>
<path d="M547.393 491.639C547.094 491.639 546.806 491.513 546.594 491.287C546.383 491.062 546.264 490.756 546.264 490.437V94.9618C546.264 94.643 546.383 94.3373 546.594 94.1118C546.806 93.8864 547.094 93.7598 547.393 93.7598C547.693 93.7598 547.98 93.8864 548.192 94.1118C548.403 94.3373 548.522 94.643 548.522 94.9618V490.437C548.522 490.756 548.403 491.062 548.192 491.287C547.98 491.513 547.693 491.639 547.393 491.639Z" fill="#3F3D56"/>
<path d="M717.932 491.639C717.633 491.639 717.345 491.513 717.134 491.287C716.922 491.062 716.803 490.756 716.803 490.437V94.9618C716.803 94.643 716.922 94.3373 717.134 94.1118C717.345 93.8864 717.633 93.7598 717.932 93.7598C718.232 93.7598 718.519 93.8864 718.731 94.1118C718.943 94.3373 719.062 94.643 719.062 94.9618V490.437C719.062 490.756 718.943 491.062 718.731 491.287C718.519 491.513 718.232 491.639 717.932 491.639Z" fill="#3F3D56"/>
<path d="M267.206 260.35H225.938C224.59 260.348 223.298 259.778 222.346 258.764C221.393 257.75 220.857 256.375 220.855 254.94V203.108C220.857 201.674 221.393 200.299 222.346 199.285C223.298 198.271 224.59 197.701 225.938 197.699H267.206C268.553 197.701 269.845 198.271 270.798 199.285C271.751 200.299 272.287 201.674 272.288 203.108V254.941C272.287 256.375 271.751 257.75 270.798 258.764C269.845 259.778 268.553 260.348 267.206 260.35Z" fill="#F9610C"/>
<path d="M325.935 408.202H284.666C283.319 408.201 282.027 407.63 281.074 406.616C280.121 405.602 279.585 404.227 279.584 402.793V350.961C279.585 349.527 280.121 348.152 281.074 347.138C282.027 346.124 283.319 345.553 284.666 345.552H325.935C327.282 345.553 328.574 346.124 329.527 347.138C330.479 348.152 331.015 349.527 331.017 350.961V402.793C331.015 404.227 330.479 405.602 329.527 406.616C328.574 407.63 327.282 408.201 325.935 408.202Z" fill="#F9610C"/>
<path d="M459.204 291.603H417.936C416.588 291.601 415.296 291.031 414.344 290.017C413.391 289.002 412.855 287.628 412.854 286.193V234.361C412.855 232.927 413.391 231.552 414.344 230.538C415.296 229.524 416.588 228.954 417.936 228.952H459.204C460.551 228.954 461.843 229.524 462.796 230.538C463.749 231.552 464.285 232.927 464.286 234.361V286.193C464.285 287.628 463.749 289.002 462.796 290.017C461.843 291.031 460.551 291.601 459.204 291.603Z" fill="#F9610C"/>
<path d="M632.003 235.107H590.735C589.387 235.105 588.095 234.535 587.143 233.52C586.19 232.506 585.654 231.131 585.652 229.697V177.865C585.654 176.431 586.19 175.056 587.143 174.042C588.095 173.028 589.387 172.458 590.735 172.456H632.003C633.35 172.458 634.642 173.028 635.595 174.042C636.548 175.056 637.084 176.431 637.085 177.865V229.697C637.084 231.131 636.548 232.506 635.595 233.52C634.642 234.535 633.35 235.105 632.003 235.107Z" fill="#F9610C"/>
<path d="M791.247 235.107H749.979C748.631 235.105 747.339 234.535 746.387 233.52C745.434 232.506 744.898 231.131 744.896 229.697V177.865C744.898 176.431 745.434 175.056 746.387 174.042C747.339 173.028 748.631 172.458 749.979 172.456H791.247C792.594 172.458 793.886 173.028 794.839 174.042C795.792 175.056 796.328 176.431 796.329 177.865V229.697C796.328 231.131 795.792 232.506 794.839 233.52C793.886 234.535 792.594 235.105 791.247 235.107Z" fill="#F9610C"/>
<path d="M864.659 249.531H823.391C822.043 249.53 820.752 248.959 819.799 247.945C818.846 246.931 818.31 245.556 818.309 244.122V192.29C818.31 190.856 818.846 189.481 819.799 188.467C820.752 187.453 822.043 186.882 823.391 186.881H864.659C866.007 186.882 867.298 187.453 868.251 188.467C869.204 189.481 869.74 190.856 869.741 192.29V244.122C869.74 245.556 869.204 246.931 868.251 247.945C867.298 248.959 866.007 249.53 864.659 249.531Z" fill="#E6E6E6"/>
<path d="M831.905 342.089H790.637C789.29 342.087 787.998 341.517 787.045 340.503C786.092 339.489 785.556 338.114 785.555 336.68V284.848C785.556 283.414 786.092 282.039 787.045 281.025C787.998 280.01 789.29 279.44 790.637 279.438H831.905C833.253 279.44 834.544 280.01 835.497 281.025C836.45 282.039 836.986 283.414 836.987 284.848V336.68C836.986 338.114 836.45 339.489 835.497 340.503C834.544 341.517 833.253 342.087 831.905 342.089Z" fill="#E6E6E6"/>
<path d="M691.86 322.857H650.592C649.245 322.855 647.953 322.285 647 321.27C646.047 320.256 645.511 318.881 645.51 317.447V265.615C645.511 264.181 646.047 262.806 647 261.792C647.953 260.778 649.245 260.208 650.592 260.206H691.86C693.208 260.208 694.5 260.778 695.452 261.792C696.405 262.806 696.941 264.181 696.943 265.615V317.447C696.941 318.881 696.405 320.256 695.452 321.27C694.5 322.285 693.208 322.855 691.86 322.857Z" fill="#FF6584"/>
<path d="M611.673 342.089H570.405C569.057 342.087 567.765 341.517 566.812 340.503C565.86 339.489 565.324 338.114 565.322 336.68V284.848C565.324 283.414 565.86 282.039 566.812 281.025C567.765 280.01 569.057 279.44 570.405 279.438H611.673C613.02 279.44 614.312 280.01 615.265 281.025C616.218 282.039 616.754 283.414 616.755 284.848V336.68C616.754 338.114 616.218 339.489 615.265 340.503C614.312 341.517 613.02 342.087 611.673 342.089Z" fill="#E6E6E6"/>
<path d="M438.876 423.828H397.608C396.26 423.827 394.968 423.256 394.016 422.242C393.063 421.228 392.527 419.853 392.525 418.419V366.587C392.527 365.153 393.063 363.778 394.016 362.764C394.968 361.75 396.26 361.179 397.608 361.178H438.876C440.223 361.179 441.515 361.75 442.468 362.764C443.421 363.778 443.957 365.153 443.958 366.587V418.419C443.957 419.853 443.421 421.228 442.468 422.242C441.515 423.256 440.223 423.827 438.876 423.828Z" fill="#E6E6E6"/>
<path d="M229.936 355.312H188.668C187.321 355.31 186.029 354.74 185.076 353.726C184.123 352.711 183.587 351.337 183.586 349.902V298.07C183.587 296.636 184.123 295.261 185.076 294.247C186.029 293.233 187.321 292.663 188.668 292.661H229.936C231.284 292.663 232.576 293.233 233.529 294.247C234.481 295.261 235.017 296.636 235.019 298.07V349.902C235.017 351.337 234.481 352.711 233.529 353.726C232.576 354.74 231.284 355.31 229.936 355.312Z" fill="#FF6584"/>
<path d="M346.265 260.35H304.996C303.649 260.348 302.357 259.778 301.404 258.764C300.451 257.75 299.916 256.375 299.914 254.94V203.108C299.916 201.674 300.451 200.299 301.404 199.285C302.357 198.271 303.649 197.701 304.996 197.699H346.265C347.612 197.701 348.904 198.271 349.857 199.285C350.809 200.299 351.345 201.674 351.347 203.108V254.941C351.345 256.375 350.809 257.75 349.857 258.764C348.904 259.778 347.612 260.348 346.265 260.35Z" fill="#E6E6E6"/>
<path d="M312.477 116.599H248.102C246.903 116.599 245.754 116.092 244.907 115.191C244.06 114.289 243.584 113.066 243.584 111.791C243.584 110.515 244.06 109.292 244.907 108.391C245.754 107.489 246.903 106.982 248.102 106.982H312.477C313.675 106.982 314.825 107.489 315.672 108.391C316.519 109.292 316.995 110.515 316.995 111.791C316.995 113.066 316.519 114.289 315.672 115.191C314.825 116.092 313.675 116.599 312.477 116.599Z" fill="#4B4B4B"/>
<path d="M494.311 116.599H429.936C428.737 116.599 427.588 116.092 426.741 115.191C425.894 114.289 425.418 113.066 425.418 111.791C425.418 110.515 425.894 109.292 426.741 108.391C427.588 107.489 428.737 106.982 429.936 106.982H494.311C495.509 106.982 496.658 107.489 497.506 108.391C498.353 109.292 498.829 110.515 498.829 111.791C498.829 113.066 498.353 114.289 497.506 115.191C496.658 116.092 495.509 116.599 494.311 116.599Z" fill="#4B4B4B"/>
<path d="M664.85 116.599H600.475C599.276 116.599 598.127 116.092 597.28 115.191C596.433 114.289 595.957 113.066 595.957 111.791C595.957 110.515 596.433 109.292 597.28 108.391C598.127 107.489 599.276 106.982 600.475 106.982H664.85C666.048 106.982 667.198 107.489 668.045 108.391C668.892 109.292 669.368 110.515 669.368 111.791C669.368 113.066 668.892 114.289 668.045 115.191C667.198 116.092 666.048 116.599 664.85 116.599Z" fill="#4B4B4B"/>
<path d="M824.094 116.599H759.719C758.521 116.599 757.372 116.092 756.524 115.191C755.677 114.289 755.201 113.066 755.201 111.791C755.201 110.515 755.677 109.292 756.524 108.391C757.372 107.489 758.521 106.982 759.719 106.982H824.094C825.293 106.982 826.442 107.489 827.289 108.391C828.136 109.292 828.612 110.515 828.612 111.791C828.612 113.066 828.136 114.289 827.289 115.191C826.442 116.092 825.293 116.599 824.094 116.599Z" fill="#4B4B4B"/>
<path d="M168.291 468.67C166.639 468.497 165.042 467.942 163.613 467.041C162.184 466.141 160.958 464.919 160.022 463.46C159.085 462.001 158.46 460.341 158.191 458.597C157.922 456.853 158.016 455.068 158.465 453.367L129.516 424.685L144.822 420.552L173.289 445.126C175.924 446.119 178.126 448.107 179.476 450.712C180.826 453.317 181.232 456.359 180.615 459.261C179.999 462.163 178.404 464.723 176.133 466.458C173.862 468.192 171.071 468.979 168.291 468.67Z" fill="#FFB8B8"/>
<path d="M208.266 680.666H222.112L228.699 623.823H208.264L208.266 680.666Z" fill="#FFB8B8"/>
<path d="M248.816 694.349L205.3 694.351L205.299 676.456L232.002 676.455C236.462 676.454 240.738 678.34 243.891 681.695C247.045 685.051 248.816 689.603 248.816 694.349Z" fill="#2F2E41"/>
<path d="M113.33 670.026L126.711 673.817L146.816 620.691L127.068 615.097L113.33 670.026Z" fill="#FFB8B8"/>
<path d="M149.209 694.353L107.157 682.439L111.481 665.147L137.286 672.457C141.595 673.678 145.272 676.67 147.508 680.777C149.744 684.883 150.356 689.766 149.209 694.353Z" fill="#2F2E41"/>
<path d="M225.835 669.904H204.707C203.373 669.909 202.085 669.382 201.097 668.427C200.109 667.472 199.493 666.158 199.37 664.743L186.544 522.983C186.45 521.944 186.019 520.971 185.326 520.232C184.632 519.493 183.719 519.033 182.742 518.931C181.765 518.83 180.786 519.093 179.971 519.675C179.156 520.258 178.557 521.123 178.276 522.124L141.035 654.589C140.642 655.997 139.752 657.189 138.553 657.916C137.353 658.643 135.937 658.849 134.598 658.491L114.943 653.261C114.257 653.078 113.612 652.753 113.044 652.304C112.477 651.855 111.998 651.291 111.636 650.645C111.274 649.998 111.036 649.282 110.936 648.537C110.835 647.792 110.874 647.033 111.049 646.304C111.37 644.969 143.136 512.842 143.414 511.484C150.611 455.026 159.222 439.897 163.848 431.771C164.231 431.098 164.583 430.479 164.9 429.895C165.296 429.164 167.737 421.908 169.286 417.196C169.487 416.429 169.835 415.716 170.308 415.099C170.782 414.483 171.37 413.979 172.036 413.617C191.474 403.036 214.216 410.36 220.723 412.857C221.802 413.261 222.729 414.027 223.364 415.039C242.885 446.378 233.305 628.393 231.186 664.563C231.098 666.01 230.496 667.367 229.502 668.358C228.509 669.35 227.198 669.903 225.835 669.904Z" fill="#2F2E41"/>
<path d="M171.311 310.833C186.631 310.833 199.051 297.615 199.051 281.31C199.051 265.004 186.631 251.786 171.311 251.786C155.992 251.786 143.572 265.004 143.572 281.31C143.572 297.615 155.992 310.833 171.311 310.833Z" fill="#FFB8B8"/>
<path d="M168.374 422.927L168.174 422.722C167.8 422.337 130.841 383.8 135.624 348.165C137.67 332.924 149.257 323.185 169.131 320C176.433 318.846 183.88 320.536 190.105 324.759C196.329 328.981 200.913 335.453 203.013 342.985L222.664 414.488L168.374 422.927Z" fill="#F9610C"/>
<path d="M149.456 450.338L123.12 422.485C121.32 420.57 120.012 418.194 119.324 415.585C118.636 412.976 118.59 410.223 119.19 407.59L131.94 352.393C132.322 350.739 133.018 349.186 133.987 347.83C134.955 346.474 136.175 345.345 137.57 344.511C138.966 343.677 140.507 343.157 142.099 342.982C143.691 342.808 145.299 342.983 146.825 343.497C149.733 344.495 152.162 346.658 153.597 349.529C155.033 352.399 155.362 355.752 154.515 358.876L141.093 407.435L162.798 432.242L149.456 450.338Z" fill="#F9610C"/>
<path d="M290.711 355.281C290.015 356.886 288.997 358.308 287.728 359.448C286.459 360.588 284.971 361.418 283.369 361.88C281.766 362.341 280.088 362.423 278.452 362.12C276.817 361.817 275.263 361.135 273.902 360.124L238.744 379.519L240.298 363.043L271.466 342.514C273.214 340.192 275.701 338.633 278.457 338.133C281.212 337.633 284.045 338.226 286.417 339.799C288.789 341.373 290.537 343.818 291.328 346.672C292.12 349.525 291.9 352.589 290.711 355.281Z" fill="#FFB8B8"/>
<path d="M270.062 367.545L235.789 383.308C233.508 384.349 231.014 384.748 228.546 384.466C226.078 384.184 223.72 383.232 221.698 381.699L178.116 348.464C176.815 347.472 175.719 346.206 174.896 344.745C174.074 343.284 173.541 341.659 173.333 339.971C173.124 338.282 173.242 336.566 173.682 334.928C174.121 333.291 174.872 331.766 175.887 330.45C177.837 327.947 180.627 326.35 183.664 325.998C186.702 325.646 189.749 326.567 192.16 328.565L229.53 359.869L259.233 347.638L270.062 367.545Z" fill="#F9610C"/>
<path d="M175.91 290.77C179.332 286.207 185.726 285.961 190.426 282.951C196.584 279.008 199.129 270.196 197.145 262.846C195.161 255.495 189.309 249.766 182.6 247.026C175.891 244.286 168.427 244.252 161.349 245.577C150.812 247.549 140.437 252.783 134.011 261.887C127.584 270.992 125.948 284.325 131.773 293.877C134.45 298.267 138.582 301.891 139.651 307C141.054 313.707 136.634 320.175 131.898 324.846C126.504 330.166 120.314 334.622 115.588 340.62C110.861 346.618 107.709 354.812 109.866 362.296C111.673 368.566 116.932 373.186 122.698 375.499C128.464 377.813 134.744 378.147 140.905 378.275C146.888 378.4 153.242 378.245 158.282 374.812C163.677 371.136 166.558 364.163 166.771 357.349C166.984 350.535 164.844 343.859 161.977 337.762C160.268 334.128 158.281 330.607 157.145 326.727C156.01 322.847 155.813 318.445 157.632 314.872C159.543 311.116 163.411 308.851 167.349 308.027C167.554 307.984 167.77 307.946 167.997 307.912C169.117 307.757 170.196 307.362 171.169 306.751C172.142 306.14 172.989 305.325 173.657 304.355C174.326 303.386 174.803 302.282 175.059 301.111C175.316 299.94 175.346 298.725 175.149 297.541C174.701 294.879 174.739 292.332 175.91 290.77Z" fill="#2F2E41"/>
<path d="M545.757 681.925H531.911L525.324 625.082L545.76 625.083L545.757 681.925Z" fill="#A0616A"/>
<path d="M522.022 677.714H548.726V695.609H505.209C505.209 693.259 505.644 690.932 506.489 688.761C507.334 686.59 508.572 684.617 510.133 682.955C511.695 681.293 513.548 679.975 515.588 679.076C517.628 678.177 519.814 677.714 522.022 677.714Z" fill="#2F2E41"/>
<path d="M646.224 665.232L633.63 671.354L605.447 622.563L624.036 613.526L646.224 665.232Z" fill="#A0616A"/>
<path d="M622.989 671.897L647.278 660.089L654.264 676.367L614.681 695.609C613.763 693.472 613.251 691.163 613.172 688.814C613.093 686.466 613.449 684.124 614.221 681.922C614.992 679.72 616.163 677.702 617.668 675.982C619.172 674.262 620.98 672.874 622.989 671.897Z" fill="#2F2E41"/>
<path d="M605.902 490.266C607.229 489.203 608.32 487.844 609.1 486.284C609.88 484.724 610.328 483.001 610.415 481.236C610.501 479.471 610.223 477.708 609.599 476.07C608.976 474.432 608.023 472.96 606.807 471.756L623.083 432.449L602.406 436.179L590.119 472.934C588.355 475.242 587.448 478.158 587.569 481.131C587.691 484.103 588.832 486.925 590.778 489.061C592.723 491.197 595.337 492.5 598.125 492.722C600.912 492.944 603.68 492.07 605.902 490.266Z" fill="#A0616A"/>
<path d="M544.875 666.936H531.647C530.365 666.932 529.13 666.413 528.191 665.483C527.252 664.553 526.676 663.281 526.578 661.919L519.365 456.899C519.311 456.113 519.419 455.324 519.682 454.588C519.945 453.851 520.355 453.185 520.885 452.635C521.415 452.085 522.051 451.664 522.749 451.403C523.447 451.142 524.191 451.047 524.928 451.123L601.427 459.77C602.667 459.899 603.819 460.508 604.665 461.482C605.511 462.455 605.991 463.726 606.015 465.051L607.618 555.488C607.627 555.979 607.716 556.465 607.882 556.923L639.263 643.534C639.505 644.203 639.62 644.917 639.601 645.634C639.582 646.35 639.429 647.056 639.151 647.709C638.874 648.363 638.476 648.951 637.983 649.439C637.49 649.928 636.91 650.307 636.278 650.555L622.874 655.811C621.709 656.268 620.429 656.255 619.273 655.776C618.116 655.297 617.165 654.384 616.597 653.21L578.048 573.431C577.838 572.997 577.684 572.535 577.591 572.057L571.006 538.287C570.815 537.308 570.303 536.433 569.561 535.82C568.819 535.206 567.896 534.894 566.957 534.94C566.018 534.985 565.125 535.384 564.439 536.067C563.752 536.749 563.316 537.669 563.209 538.663L549.924 662.142C549.783 663.462 549.19 664.68 548.258 665.564C547.327 666.448 546.123 666.937 544.875 666.936Z" fill="#2F2E41"/>
<path d="M551.462 296.593C566.782 296.593 579.201 283.375 579.201 267.07C579.201 250.764 566.782 237.546 551.462 237.546C536.142 237.546 523.723 250.764 523.723 267.07C523.723 283.375 536.142 296.593 551.462 296.593Z" fill="#A0616A"/>
<path d="M570.485 475.645C551.674 475.425 533.312 469.504 517.547 458.578L517.277 458.38L517.305 458.032L527.916 326.508C528.282 322.046 530.153 317.875 533.184 314.768C536.215 311.661 540.201 309.827 544.404 309.605C558.155 308.933 576.627 309.781 586.514 317.619C601.457 329.464 608.659 347.302 606.274 366.557C601.327 406.488 606.931 460.352 607.586 466.363L607.634 466.796L607.261 466.978C595.742 472.682 583.191 475.64 570.485 475.645Z" fill="#F9610C"/>
<path d="M607.459 466.586C606.677 466.585 605.904 466.411 605.189 466.075C604.473 465.739 603.831 465.249 603.302 464.636L597.234 457.591C596.579 456.825 596.119 455.892 595.9 454.883C595.68 453.874 595.709 452.821 595.982 451.827L609.818 401.985L588.766 354.933C587.783 352.73 587.542 350.234 588.084 347.865C588.562 345.785 589.62 343.909 591.121 342.483C592.621 341.056 594.492 340.148 596.487 339.876C598.483 339.605 600.509 339.984 602.297 340.963C604.086 341.942 605.554 343.475 606.508 345.36L635.076 394.695C636.236 396.696 636.917 398.97 637.059 401.317C637.201 403.664 636.799 406.013 635.889 408.156L612.612 463.047C612.229 463.955 611.639 464.746 610.897 465.351C610.154 465.955 609.282 466.353 608.359 466.509C608.061 466.56 607.76 466.586 607.459 466.586Z" fill="#F9610C"/>
<path d="M411.935 371.377C413.267 372.432 414.8 373.163 416.427 373.518C418.053 373.874 419.733 373.846 421.348 373.436C422.963 373.026 424.474 372.244 425.774 371.145C427.074 370.046 428.133 368.658 428.874 367.076L468.898 372.601L459.7 352.541L423.103 350.37C420.524 349.22 417.64 349.117 414.995 350.08C412.35 351.043 410.129 353.005 408.752 355.594C407.375 358.183 406.939 361.22 407.526 364.129C408.112 367.038 409.681 369.617 411.935 371.377Z" fill="#A0616A"/>
<path d="M500.154 382.334C499.457 382.334 498.761 382.282 498.071 382.18L435.106 372.886C434.077 372.735 433.099 372.315 432.261 371.662C431.423 371.009 430.751 370.144 430.305 369.146C430.161 368.824 430.041 368.491 429.946 368.149C429.702 367.262 429.634 366.33 429.746 365.413C429.857 364.496 430.147 363.614 430.595 362.822L435.805 353.628C436.366 352.645 437.154 351.832 438.095 351.267C439.035 350.701 440.097 350.402 441.177 350.399H441.185L496.069 350.466L537.06 311.379C538.967 309.564 541.402 308.503 543.957 308.374C546.2 308.263 548.423 308.879 550.33 310.14C552.238 311.401 553.742 313.247 554.644 315.436C555.546 317.625 555.803 320.054 555.381 322.402C554.96 324.749 553.88 326.906 552.284 328.587L511.382 377.004C509.967 378.681 508.236 380.022 506.301 380.941C504.367 381.859 502.272 382.334 500.154 382.334Z" fill="#F9610C"/>
<path d="M554.615 293.334C557.15 287.09 559.295 278.774 554.433 274.359C551.612 271.799 547.55 271.793 543.855 271.475C533.445 270.577 522.729 265.479 517.641 255.772C512.553 246.064 515.395 231.629 524.994 227.25C531.464 224.297 538.883 226.308 545.656 228.353L565.991 234.49C572.034 236.314 578.378 238.325 582.728 243.147C589.665 250.837 589.147 263.836 583.637 272.739C578.126 281.642 569.828 290.927 560.328 294.307L554.615 293.334Z" fill="#2F2E41"/>
<path d="M835.173 696H1.34475C1.16783 696.001 0.992546 695.964 0.828942 695.893C0.665339 695.821 0.516642 695.715 0.391356 695.583C0.26607 695.45 0.166663 695.292 0.0988384 695.118C0.0310138 694.944 -0.00390625 694.757 -0.00390625 694.569C-0.00390625 694.381 0.0310138 694.194 0.0988384 694.02C0.166663 693.846 0.26607 693.688 0.391356 693.555C0.516642 693.422 0.665339 693.317 0.828942 693.245C0.992546 693.174 1.16783 693.137 1.34475 693.138H835.173C835.35 693.137 835.525 693.174 835.689 693.245C835.852 693.317 836.001 693.422 836.126 693.555C836.252 693.688 836.351 693.846 836.419 694.02C836.487 694.194 836.522 694.381 836.522 694.569C836.522 694.757 836.487 694.944 836.419 695.118C836.351 695.292 836.252 695.45 836.126 695.583C836.001 695.715 835.852 695.821 835.689 695.893C835.525 695.964 835.35 696.001 835.173 696Z" fill="#3F3D56"/>
</g>
<defs>
<clipPath id="clip0_155_2">
<rect width="928" height="696" fill="white"/>
</clipPath>
</defs>
</svg>
